<?xml version="1.0" standalone="yes"?>
<svg xmlns="http://www.w3.org/2000/svg" width="225" height="225">
<path style="fill:#fafbfe; stroke:none;" d="M0 0L0 44L1 44C3.88409 22.5997 22.5996 3.88411 44 1C32.5366 -3.81023 12.4805 0 0 0z"/>
<path style="fill:#9199db; stroke:none;" d="M44 0L44 1L47 1L44 0z"/>
<path style="fill:#5963cd; stroke:none;" d="M47.6667 0.333328L48.3333 0.666672L47.6667 0.333328z"/>
<path style="fill:#1327bf; stroke:none;" d="M49 0.425156C-16.1954 9.29971 0 90.4966 0 138C0 160.172 -3.30254 185.094 10.7608 204C20.1913 216.678 33.7979 222.505 49 224.575C69.976 227.43 92.8266 225 114 225C136.224 225 160.051 227.415 182 223.715C235.169 214.75 225 151.213 225 112L225 80C225 59.6984 227.078 38.2588 214.239 21C198.824 0.27771 175.386 0 152 0L92 0C77.9385 0 62.9379 -1.47211 49 0.425156z"/>
<path style="fill:#5963cd; stroke:none;" d="M176.667 0.333328L177.333 0.666672L176.667 0.333328z"/>
<path style="fill:#9199db; stroke:none;" d="M178 0L178 1L181 1L178 0z"/>
<path style="fill:#fafbfe; stroke:none;" d="M181 0L181 1C202.4 3.88411 221.116 22.5996 224 44L225 44L225 0L181 0z"/>
<path style="fill:#9199db; stroke:none;" d="M40 1L41 2L40 1z"/>
<path style="fill:#5963cd; stroke:none;" d="M41 1L42 2L41 1M183 1L184 2L183 1z"/>
<path style="fill:#9199db; stroke:none;" d="M184 1L185 2L184 1M36 2L37 3L36 2z"/>
<path style="fill:#5963cd; stroke:none;" d="M37 2L38 3L37 2M187 2L188 3L187 2z"/>
<path style="fill:#9199db; stroke:none;" d="M188 2L189 3L188 2M33 3L34 4L33 3z"/>
<path style="fill:#5963cd; stroke:none;" d="M34 3L35 4L34 3M190 3L191 4L190 3z"/>
<path style="fill:#9199db; stroke:none;" d="M191 3L192 4L191 3M31 4L32 5L31 4M193 4L194 5L193 4M29 5L30 6L29 5M195 5L196 6L195 5M27 6L28 7L27 6M197 6L198 7L197 6M25 7L26 8L25 7M199 7L200 8L199 7z"/>
<path style="fill:#5963cd; stroke:none;" d="M24 8L25 9L24 8M200 8L201 9L200 8z"/>
<path style="fill:#9199db; stroke:none;" d="M22 9L23 10L22 9M202 9L203 10L202 9z"/>
<path style="fill:#5963cd; stroke:none;" d="M21 10L22 11L21 10M203 10L204 11L203 10z"/>
<path style="fill:#9199db; stroke:none;" d="M18 12L19 13L18 12M206 12L207 13L206 12M17 13L18 14L17 13M207 13L208 14L207 13M16 14L17 15L16 14M208 14L209 15L208 14M15 15L16 16L15 15M209 15L210 16L209 15M14 16L15 17L14 16M210 16L211 17L210 16M13 17L14 18L13 17z"/>
<path style="fill:#5963cd; stroke:none;" d="M49.6667 17.3333L50.3333 17.6667L49.6667 17.3333z"/>
<path style="fill:#9199db; stroke:none;" d="M51 17L51 18L175 18C164.973 13.7923 147.896 17 137 17L51 17z"/>
<path style="fill:#5963cd; stroke:none;" d="M175 17L176 18L175 17z"/>
<path style="fill:#9199db; stroke:none;" d="M211 17L212 18L211 17M12 18L13 19L12 18z"/>
<path style="fill:#5963cd; stroke:none;" d="M43 18L44 19L43 18z"/>
<path style="fill:#9199db; stroke:none;" d="M44.6667 18.3333L45.3333 18.6667L44.6667 18.3333z"/>
<path style="fill:#fafbfe; stroke:none;" d="M46 18.4676C32.8188 20.9374 22.3032 31.1145 18.9244 44C16.0216 55.07 18 68.6059 18 80L18 151C18 164.523 15.5789 180.259 23.8002 192C33.8457 206.346 48.1328 207 64 207L141 207C153.465 207 167.786 208.937 180 206.331C192.204 203.727 202.569 194.082 205.841 182C208.94 170.558 207 156.789 207 145L207 73C207 59.3028 209.395 43.5833 200.471 32C189.542 17.8154 175.272 18 159 18L84 18C71.7969 18 58.0066 16.2179 46 18.4676z"/>
<path style="fill:#9199db; stroke:none;" d="M179.667 18.3333L180.333 18.6667L179.667 18.3333z"/>
<path style="fill:#5963cd; stroke:none;" d="M181 18L182 19L181 18z"/>
<path style="fill:#9199db; stroke:none;" d="M212 18L213 19L212 18z"/>
<path style="fill:#5963cd; stroke:none;" d="M40 19L41 20L40 19z"/>
<path style="fill:#9199db; stroke:none;" d="M41 19L42 20L41 19M183 19L184 20L183 19z"/>
<path style="fill:#5963cd; stroke:none;" d="M184 19L185 20L184 19z"/>
<path style="fill:#9199db; stroke:none;" d="M38.6667 20.3333L39.3333 20.6667L38.6667 20.3333M186 20L187 21L186 20z"/>
<path style="fill:#5963cd; stroke:none;" d="M10 21L11 22L10 21z"/>
<path style="fill:#9199db; stroke:none;" d="M36 21L37 22L36 21M188 21L189 22L188 21z"/>
<path style="fill:#5963cd; stroke:none;" d="M214 21L215 22L214 21z"/>
<path style="fill:#9199db; stroke:none;" d="M9 22L10 23L9 22z"/>
<path style="fill:#5963cd; stroke:none;" d="M34 22L35 23L34 22M190 22L191 23L190 22z"/>
<path style="fill:#9199db; stroke:none;" d="M215 22L216 23L215 22M33 23L34 24L33 23M191 23L192 24L191 23z"/>
<path style="fill:#5963cd; stroke:none;" d="M8 24L9 25L8 24M31 24L32 25L31 24M193 24L194 25L193 24M216 24L217 25L216 24z"/>
<path style="fill:#9199db; stroke:none;" d="M7 25L8 26L7 25M30 25L31 26L30 25M194 25L195 26L194 25M217 25L218 26L217 25M29 26L30 27L29 26M195 26L196 27L195 26M6 27L7 28L6 27M28 27L29 28L28 27M196 27L197 28L196 27M218 27L219 28L218 27M27 28L28 29L27 28M197 28L198 29L197 28M5 29L6 30L5 29M26 29L27 30L26 29M198 29L199 30L198 29M219 29L220 30L219 29M25 30L26 31L25 30M199 30L200 31L199 30M4 31L5 32L4 31z"/>
<path style="fill:#5963cd; stroke:none;" d="M24 31L25 32L24 31M200 31L201 32L200 31z"/>
<path style="fill:#9199db; stroke:none;" d="M220 31L221 32L220 31M3 33L4 34L3 33M23 33L24 34L23 33M201 33L202 34L201 33M221 33L222 34L221 33z"/>
<path style="fill:#5963cd; stroke:none;" d="M3 34L4 35L3 34M22 34L23 35L22 34M202 34L203 35L202 34M221 34L222 35L221 34z"/>
<path style="fill:#9199db; stroke:none;" d="M46 35L46 36L85 36C74.726 31.6889 57.1724 35 46 35M2 36L3 37L2 36M21 36L22 37L21 36z"/>
<path style="fill:#5963cd; stroke:none;" d="M43 36L44 37L43 36z"/>
<path style="fill:#1327bf; stroke:none;" d="M44.0193 36.7423C37.3013 39.4247 37.6093 49.2119 44.044 51.9907C52.5685 55.6721 66.8027 53.0006 76 53C79.8735 52.9998 84.3772 53.5213 87.8912 51.5432C94.0773 48.061 92.7192 38.3355 85.9846 36.4336C76.8929 33.8662 52.788 33.2411 44.0193 36.7423z"/>
<path style="fill:#9199db; stroke:none;" d="M87 36L88 37L87 36M203 36L204 37L203 36M222 36L223 37L222 36z"/>
<path style="fill:#5963cd; stroke:none;" d="M2 37L3 38L2 37z"/>
<path style="fill:#9199db; stroke:none;" d="M41 37L42 38L41 37M89 37L90 38L89 37z"/>
<path style="fill:#5963cd; stroke:none;" d="M222 37L223 38L222 37z"/>
<path style="fill:#9199db; stroke:none;" d="M20.3333 38.6667L20.6667 39.3333L20.3333 38.6667M40 38L41 39L40 38M90 38L91 39L90 38M204 38L205 39L204 38M1 40L2 41L1 40z"/>
<path style="fill:#5963cd; stroke:none;" d="M19 40L20 41L19 40M91 40L92 41L91 40M205 40L206 41L205 40z"/>
<path style="fill:#9199db; stroke:none;" d="M223 40L224 41L223 40z"/>
<path style="fill:#5963cd; stroke:none;" d="M1 41L2 42L1 41z"/>
<path style="fill:#9199db; stroke:none;" d="M19 41L20 42L19 41M205 41L206 42L205 41z"/>
<path style="fill:#5963cd; stroke:none;" d="M223 41L224 42L223 41z"/>
<path style="fill:#9199db; stroke:none;" d="M38 42L39 43L38 42M92.3333 42.6667L92.6667 43.3333L92.3333 42.6667z"/>
<path style="fill:#5963cd; stroke:none;" d="M18 43L19 44L18 43M38 43L38 46L39 46L38 43M206 43L207 44L206 43z"/>
<path style="fill:#9199db; stroke:none;" d="M0 44L0 47L1 47L0 44M18.3333 44.6667L18.6667 45.3333L18.3333 44.6667z"/>
<path style="fill:#5963cd; stroke:none;" d="M92 44L93 45L92 44z"/>
<path style="fill:#9199db; stroke:none;" d="M206.333 44.6667L206.667 45.3333L206.333 44.6667M224 44L224 47L225 47L224 44M92.3333 45.6667L92.6667 46.3333L92.3333 45.6667M38 46L39 47L38 46z"/>
<path style="fill:#5963cd; stroke:none;" d="M0.333333 47.6667L0.666667 48.3333L0.333333 47.6667M224.333 47.6667L224.667 48.3333L224.333 47.6667M39 48L40 49L39 48M91 48L92 49L91 48M17.3333 49.6667L17.6667 50.3333L17.3333 49.6667M207 49L208 50L207 49z"/>
<path style="fill:#9199db; stroke:none;" d="M207 50L207 175L208 175L208 88C208 77.1039 211.208 60.0275 207 50M17 51L17 174L18 174L18 88C18 77.366 21.1077 60.7892 17 51z"/>
<path style="fill:#5963cd; stroke:none;" d="M42 51L43 52L42 51M88 51L89 52L88 51z"/>
<path style="fill:#9199db; stroke:none;" d="M43 52L44 53L43 52z"/>
<path style="fill:#5963cd; stroke:none;" d="M44 52L45 53L44 52M86 52L87 53L86 52z"/>
<path style="fill:#9199db; stroke:none;" d="M87 52L88 53L87 52M61 70L62 71L61 70z"/>
<path style="fill:#ff5cf1; stroke:none;" d="M62.0401 70.6528C55.0843 72.95 53.8299 83.318 61.044 86.2577C66.8511 88.6242 75.8068 87 82 87L128 87C134.344 87 145.264 89.0819 150.941 85.9722C157.84 82.1941 155.242 71.5675 147.996 70.2284C129.919 66.8876 108.402 70 90 70C81.5572 70 70.1 67.9909 62.0401 70.6528M112.044 104.742C104.981 107.621 105.795 118.527 113.015 120.566C127.486 124.653 147.946 121 163 121C168.454 121 176.989 122.58 181.891 119.821C188.685 115.997 186.269 105.572 178.996 104.228C164.321 101.516 146.934 104 132 104C126.076 104 117.604 102.477 112.044 104.742z"/>
<path style="fill:#9199db; stroke:none;" d="M88 138L89 139L88 138z"/>
<path style="fill:#1327bf; stroke:none;" d="M89.0154 138.653C81.9739 140.932 80.7003 151.335 88.0193 154.258C93.3796 156.398 101.308 155 107 155L149 155C154.638 155 163.8 156.721 168.786 153.682C176.517 148.971 171.413 139.217 164 138.189C147.943 135.962 130.217 138 114 138C106.373 138 96.3188 136.289 89.0154 138.653z"/>
<path style="fill:#5963cd; stroke:none;" d="M166 138L167 139L166 138z"/>
<path style="fill:#9199db; stroke:none;" d="M167 138L168 139L167 138z"/>
<path style="fill:#5963cd; stroke:none;" d="M86 139L87 140L86 139z"/>
<path style="fill:#9199db; stroke:none;" d="M169 139L170 140L169 139M170 140L171 141L170 140M171 141L172 142L171 141z"/>
<path style="fill:#5963cd; stroke:none;" d="M83 142L84 143L83 142z"/>
<path style="fill:#9199db; stroke:none;" d="M172 143L173 144L172 143M82 144L83 145L82 144z"/>
<path style="fill:#5963cd; stroke:none;" d="M172 144L173 145L172 144M82 145L82 149L83 149L82 145z"/>
<path style="fill:#9199db; stroke:none;" d="M82 149L83 150L82 149z"/>
<path style="fill:#5963cd; stroke:none;" d="M172 149L173 150L172 149z"/>
<path style="fill:#9199db; stroke:none;" d="M83 151L84 152L83 151z"/>
<path style="fill:#5963cd; stroke:none;" d="M171 151L172 152L171 151M84 152L85 153L84 152z"/>
<path style="fill:#9199db; stroke:none;" d="M85 153L86 154L85 153z"/>
<path style="fill:#5963cd; stroke:none;" d="M169 153L170 154L169 153z"/>
<path style="fill:#9199db; stroke:none;" d="M86 154L87 155L86 154z"/>
<path style="fill:#5963cd; stroke:none;" d="M87 154L88 155L87 154z"/>
<path style="fill:#9199db; stroke:none;" d="M168 154L169 155L168 154M89 155L89 156L166 156L142 155L89 155M154.667 172.333L155.333 172.667L154.667 172.333z"/>
<path style="fill:#5963cd; stroke:none;" d="M156 172L156 173L177 173L156 172z"/>
<path style="fill:#9199db; stroke:none;" d="M177.667 172.333L178.333 172.667L177.667 172.333M152 173L153 174L152 173z"/>
<path style="fill:#1327bf; stroke:none;" d="M153.055 174.028C147.629 176.962 147.024 185.655 153.108 188.258C158.408 190.525 175.799 190.782 180.786 187.821C186.101 184.666 185.599 176.163 179.895 173.742C174.637 171.511 158.094 171.302 153.055 174.028z"/>
<path style="fill:#9199db; stroke:none;" d="M180 173L181 174L180 173z"/>
<path style="fill:#5963cd; stroke:none;" d="M17.3333 174.667L17.6667 175.333L17.3333 174.667M151 174L152 175L151 174M150 175L151 176L150 175M207 175L208 176L207 175M0.333333 176.667L0.666667 177.333L0.333333 176.667z"/>
<path style="fill:#9199db; stroke:none;" d="M149 176L150 177L149 176z"/>
<path style="fill:#5963cd; stroke:none;" d="M183 176L184 177L183 176M224.333 176.667L224.667 177.333L224.333 176.667z"/>
<path style="fill:#9199db; stroke:none;" d="M0 178L0 181L1 181L0 178M148 178L149 179L148 178M184 178L185 179L184 178M224 178L224 181L225 181L224 178M18.3333 179.667L18.6667 180.333L18.3333 179.667z"/>
<path style="fill:#5963cd; stroke:none;" d="M148 179L149 180L148 179z"/>
<path style="fill:#9199db; stroke:none;" d="M206.333 179.667L206.667 180.333L206.333 179.667z"/>
<path style="fill:#fafbfe; stroke:none;" d="M0 181L0 225L44 225L44 224C17.9137 220.484 10.6854 200.951 0 181z"/>
<path style="fill:#5963cd; stroke:none;" d="M18 181L19 182L18 181M206 181L207 182L206 181z"/>
<path style="fill:#fafbfe; stroke:none;" d="M224 181C221.116 202.4 202.4 221.116 181 224L181 225L225 225C225 212.52 228.81 192.463 224 181z"/>
<path style="fill:#5963cd; stroke:none;" d="M148 182L149 183L148 182M1 183L2 184L1 183z"/>
<path style="fill:#9199db; stroke:none;" d="M19 183L20 184L19 183M148 183L149 184L148 183M184 183L185 184L184 183M205 183L206 184L205 183z"/>
<path style="fill:#5963cd; stroke:none;" d="M223 183L224 184L223 183z"/>
<path style="fill:#9199db; stroke:none;" d="M1 184L2 185L1 184z"/>
<path style="fill:#5963cd; stroke:none;" d="M19 184L20 185L19 184M205 184L206 185L205 184z"/>
<path style="fill:#9199db; stroke:none;" d="M223 184L224 185L223 184M20.3333 185.667L20.6667 186.333L20.3333 185.667z"/>
<path style="fill:#5963cd; stroke:none;" d="M149 185L150 186L149 185M183 185L184 186L183 185z"/>
<path style="fill:#9199db; stroke:none;" d="M204 186L205 187L204 186z"/>
<path style="fill:#5963cd; stroke:none;" d="M2 187L3 188L2 187M222 187L223 188L222 187z"/>
<path style="fill:#9199db; stroke:none;" d="M2 188L3 189L2 188M21 188L22 189L21 188z"/>
<path style="fill:#5963cd; stroke:none;" d="M152 188L153 189L152 188M180 188L181 189L180 188z"/>
<path style="fill:#9199db; stroke:none;" d="M203 188L204 189L203 188M222 188L223 189L222 188M154 189L155 190L154 189z"/>
<path style="fill:#5963cd; stroke:none;" d="M155 189L155 190L178 190L155 189z"/>
<path style="fill:#9199db; stroke:none;" d="M178 189L179 190L178 189z"/>
<path style="fill:#5963cd; stroke:none;" d="M3 190L4 191L3 190M22 190L23 191L22 190M202 190L203 191L202 190M221 190L222 191L221 190z"/>
<path style="fill:#9199db; stroke:none;" d="M3 191L4 192L3 191M23 191L24 192L23 191M201 191L202 192L201 191M221 191L222 192L221 191M4 193L5 194L4 193z"/>
<path style="fill:#5963cd; stroke:none;" d="M24 193L25 194L24 193M200 193L201 194L200 193z"/>
<path style="fill:#9199db; stroke:none;" d="M220 193L221 194L220 193M25 194L26 195L25 194M199 194L200 195L199 194M5 195L6 196L5 195M26 195L27 196L26 195M198 195L199 196L198 195M219 195L220 196L219 195M27 196L28 197L27 196M197 196L198 197L197 196M6 197L7 198L6 197M28 197L29 198L28 197M196 197L197 198L196 197M218 197L219 198L218 197M29 198L30 199L29 198M195 198L196 199L195 198M7 199L8 200L7 199M30 199L31 200L30 199M194 199L195 200L194 199M217 199L218 200L217 199z"/>
<path style="fill:#5963cd; stroke:none;" d="M8 200L9 201L8 200M31 200L32 201L31 200M193 200L194 201L193 200M216 200L217 201L216 200z"/>
<path style="fill:#9199db; stroke:none;" d="M33 201L34 202L33 201M191 201L192 202L191 201M9 202L10 203L9 202z"/>
<path style="fill:#5963cd; stroke:none;" d="M34 202L35 203L34 202M190 202L191 203L190 202z"/>
<path style="fill:#9199db; stroke:none;" d="M215 202L216 203L215 202z"/>
<path style="fill:#5963cd; stroke:none;" d="M10 203L11 204L10 203z"/>
<path style="fill:#9199db; stroke:none;" d="M36 203L37 204L36 203M188 203L189 204L188 203z"/>
<path style="fill:#5963cd; stroke:none;" d="M214 203L215 204L214 203z"/>
<path style="fill:#9199db; stroke:none;" d="M38.6667 204.333L39.3333 204.667L38.6667 204.333M186 204L187 205L186 204z"/>
<path style="fill:#5963cd; stroke:none;" d="M40 205L41 206L40 205z"/>
<path style="fill:#9199db; stroke:none;" d="M41 205L42 206L41 205M183 205L184 206L183 205z"/>
<path style="fill:#5963cd; stroke:none;" d="M184 205L185 206L184 205z"/>
<path style="fill:#9199db; stroke:none;" d="M12 206L13 207L12 206z"/>
<path style="fill:#5963cd; stroke:none;" d="M43 206L44 207L43 206z"/>
<path style="fill:#9199db; stroke:none;" d="M44.6667 206.333L45.3333 206.667L44.6667 206.333M179.667 206.333L180.333 206.667L179.667 206.333z"/>
<path style="fill:#5963cd; stroke:none;" d="M181 206L182 207L181 206z"/>
<path style="fill:#9199db; stroke:none;" d="M212 206L213 207L212 206M13 207L14 208L13 207z"/>
<path style="fill:#5963cd; stroke:none;" d="M49.6667 207.333L50.3333 207.667L49.6667 207.333z"/>
<path style="fill:#9199db; stroke:none;" d="M51 207L51 208L175 208C164.973 203.792 147.896 207 137 207L51 207z"/>
<path style="fill:#5963cd; stroke:none;" d="M175 207L176 208L175 207z"/>
<path style="fill:#9199db; stroke:none;" d="M211 207L212 208L211 207M14 208L15 209L14 208M210 208L211 209L210 208M15 209L16 210L15 209M209 209L210 210L209 209M16 210L17 211L16 210M208 210L209 211L208 210M17 211L18 212L17 211M207 211L208 212L207 211M18 212L19 213L18 212M206 212L207 213L206 212z"/>
<path style="fill:#5963cd; stroke:none;" d="M21 214L22 215L21 214M203 214L204 215L203 214z"/>
<path style="fill:#9199db; stroke:none;" d="M22 215L23 216L22 215M202 215L203 216L202 215z"/>
<path style="fill:#5963cd; stroke:none;" d="M24 216L25 217L24 216M200 216L201 217L200 216z"/>
<path style="fill:#9199db; stroke:none;" d="M25 217L26 218L25 217M199 217L200 218L199 217M27 218L28 219L27 218M197 218L198 219L197 218M29 219L30 220L29 219M195 219L196 220L195 219M31 220L32 221L31 220M193 220L194 221L193 220M33 221L34 222L33 221z"/>
<path style="fill:#5963cd; stroke:none;" d="M34 221L35 222L34 221M190 221L191 222L190 221z"/>
<path style="fill:#9199db; stroke:none;" d="M191 221L192 222L191 221M36 222L37 223L36 222z"/>
<path style="fill:#5963cd; stroke:none;" d="M37 222L38 223L37 222M187 222L188 223L187 222z"/>
<path style="fill:#9199db; stroke:none;" d="M188 222L189 223L188 222M40 223L41 224L40 223z"/>
<path style="fill:#5963cd; stroke:none;" d="M41 223L42 224L41 223M183 223L184 224L183 223z"/>
<path style="fill:#9199db; stroke:none;" d="M184 223L185 224L184 223M44 224L44 225L47 225L44 224z"/>
<path style="fill:#5963cd; stroke:none;" d="M47.6667 224.333L48.3333 224.667L47.6667 224.333M176.667 224.333L177.333 224.667L176.667 224.333z"/>
<path style="fill:#9199db; stroke:none;" d="M178 224L178 225L181 225L178 224z"/>
</svg>
